Coordinates
version=1
nRows=78
nColumns=19
inDegrees=yes

Units are S.I. units (second, meters, Newtons, ...)
Angles are in degrees.

endheader
time	ground_force_vx	ground_force_vy	ground_force_vz	ground_force_px	ground_force_py	ground_force_pz	1_ground_force_vx	1_ground_force_vy	1_ground_force_vz	1_ground_force_px	1_ground_force_py	1_ground_force_pz	ground_torque_x	ground_torque_y	ground_torque_z	1_ground_torque_x	1_ground_torque_y	1_ground_torque_z
0.9100	5.050	-1.791	0.324	-0.257	0.000	0.415	-17.194	-1.453	-5.569	-0.214	0.000	0.275	0.00000	2.31250	0.00000	0.00000	-79.67589	0.00000
0.9125	4.173	-2.309	0.548	-0.258	0.000	0.415	-18.246	-1.442	-4.701	-0.215	0.000	0.274	0.00000	1.42150	0.00000	0.00000	-89.52340	0.00000
0.9150	4.395	-3.362	0.810	-0.244	0.000	0.413	-19.818	-0.401	-4.227	-0.217	0.000	0.269	0.00000	1.06922	0.00000	0.00000	-376.07462	0.00000
0.9175	4.871	-2.317	0.324	-0.241	0.000	0.407	-18.382	-0.751	-3.958	-0.217	0.000	0.270	0.00000	1.91152	0.00000	0.00000	-182.86340	0.00000
0.9200	4.489	-2.308	1.914	-0.251	0.000	0.405	-18.989	-1.603	-4.270	-0.213	0.000	0.271	0.00000	2.17113	0.00000	0.00000	-82.74906	0.00000
0.9225	4.120	-0.739	0.328	-0.237	0.000	0.399	-19.033	0.970	-4.262	-0.218	0.000	0.268	0.00000	5.09364	0.00000	0.00000	160.79107	0.00000
0.9250	4.134	-1.609	1.255	-0.254	0.000	0.426	-18.721	0.616	-5.308	-0.219	0.000	0.272	0.00000	2.06131	0.00000	0.00000	240.97127	0.00000
0.9275	5.136	-1.975	-0.077	-0.254	0.000	0.397	-17.286	-1.613	-4.564	-0.216	0.000	0.274	0.00000	2.35228	0.00000	0.00000	-74.62729	0.00000
0.9300	4.138	-1.957	1.253	-0.272	0.000	0.420	-18.378	-2.305	-4.834	-0.214	0.000	0.277	0.00000	1.66590	0.00000	0.00000	-54.02137	0.00000
0.9325	3.030	-2.294	0.776	-0.264	0.000	0.424	-18.517	-1.106	-3.956	-0.217	0.000	0.277	0.00000	0.92264	0.00000	0.00000	-130.17359	0.00000
0.9350	3.953	-1.609	0.681	-0.255	0.000	0.420	-17.643	-2.322	-4.564	-0.218	0.000	0.284	0.00000	1.88485	0.00000	0.00000	-55.36177	0.00000
0.9375	4.351	-3.351	1.035	-0.255	0.000	0.416	-16.036	-4.202	-3.204	-0.217	0.000	0.288	0.00000	1.18030	0.00000	0.00000	-25.49017	0.00000
0.9400	3.510	-2.122	0.465	-0.266	0.000	0.420	-16.117	-3.189	-4.598	-0.218	0.000	0.291	0.00000	1.24785	0.00000	0.00000	-35.40948	0.00000
0.9425	2.989	-2.120	0.864	-0.267	0.000	0.437	-15.905	-2.330	-3.854	-0.222	0.000	0.286	0.00000	0.76261	0.00000	0.00000	-51.18485	0.00000
0.9450	4.174	-2.476	1.036	-0.260	0.000	0.410	-14.730	-3.532	-3.413	-0.220	0.000	0.289	0.00000	1.64347	0.00000	0.00000	-29.00629	0.00000
0.9475	4.307	-1.272	0.896	-0.249	0.000	0.391	-15.161	-3.703	-3.939	-0.220	0.000	0.290	0.00000	3.43761	0.00000	0.00000	-27.83620	0.00000
0.9500	3.204	-3.174	0.509	-0.253	0.000	0.416	-15.513	-3.531	-3.635	-0.220	0.000	0.290	0.00000	0.64036	0.00000	0.00000	-30.89228	0.00000
0.9525	4.084	-3.516	0.862	-0.261	0.000	0.422	-14.949	-3.016	-3.326	-0.222	0.000	0.286	0.00000	1.04856	0.00000	0.00000	-35.60308	0.00000
0.9550	4.394	-0.917	1.296	-0.242	0.000	0.393	-15.043	-4.052	-2.939	-0.219	0.000	0.288	0.00000	5.20795	0.00000	0.00000	-25.45328	0.00000
0.9575	3.950	-1.776	0.817	-0.254	0.000	0.415	-14.790	-3.373	-2.368	-0.219	0.000	0.288	0.00000	2.00569	0.00000	0.00000	-32.77704	0.00000
0.9600	3.652	-2.108	2.102	-0.267	0.000	0.429	-14.923	-2.509	-1.886	-0.221	0.000	0.283	0.00000	1.72458	0.00000	0.00000	-46.93334	0.00000
0.9625	3.648	-1.069	1.526	-0.262	0.000	0.429	-15.658	-3.015	-2.194	-0.221	0.000	0.287	0.00000	2.93198	0.00000	0.00000	-40.25856	0.00000
0.9650	4.174	-2.308	1.254	-0.246	0.000	0.401	-16.834	-4.725	-2.114	-0.219	0.000	0.296	0.00000	1.94080	0.00000	0.00000	-26.41444	0.00000
0.9675	3.563	-2.287	1.924	-0.267	0.000	0.412	-17.542	-4.033	-0.940	-0.220	0.000	0.288	0.00000	1.72075	0.00000	0.00000	-34.16243	0.00000
0.9700	3.691	-2.280	2.015	-0.260	0.000	0.415	-17.406	-5.413	-1.771	-0.217	0.000	0.296	0.00000	1.97082	0.00000	0.00000	-23.39913	0.00000
0.9725	4.308	-3.341	1.347	-0.264	0.000	0.417	-16.054	-4.039	-1.497	-0.223	0.000	0.291	0.00000	1.31647	0.00000	0.00000	-30.55341	0.00000
0.9750	3.607	-2.114	1.924	-0.261	0.000	0.418	-16.840	-4.041	-1.635	-0.220	0.000	0.289	0.00000	1.81017	0.00000	0.00000	-31.84262	0.00000
0.9775	4.220	-2.108	1.793	-0.270	0.000	0.430	-16.178	-3.012	-2.457	-0.221	0.000	0.290	0.00000	1.95474	0.00000	0.00000	-42.24853	0.00000
0.9800	4.269	-1.949	1.786	-0.263	0.000	0.422	-16.480	-2.668	-2.852	-0.220	0.000	0.287	0.00000	2.03848	0.00000	0.00000	-48.09412	0.00000
0.9825	3.470	-1.249	1.304	-0.256	0.000	0.413	-15.974	3.677	-6.091	-0.231	0.000	0.244	0.00000	2.65981	0.00000	0.00000	32.25273	0.00000
0.9850	-41.113	224.082	-28.665	-0.311	0.000	0.456	20.144	206.955	-106.752	-0.312	0.000	0.088	0.00000	1.15993	0.00000	0.00000	-0.66353	0.00000
0.9875	-18.160	347.748	-67.493	-0.272	0.000	0.459	19.157	314.046	-118.596	-0.307	0.000	0.056	0.00000	2.81733	0.00000	0.00000	9.82181	0.00000
0.9900	-16.709	512.314	-235.183	-0.299	0.000	0.450	24.994	355.519	-226.416	-0.317	0.000	0.044	0.00000	3.88660	0.00000	0.00000	-0.72256	0.00000
0.9925	-36.194	488.755	-272.645	-0.313	0.000	0.440	23.190	366.306	-217.163	-0.317	0.000	0.062	0.00000	14.11030	0.00000	0.00000	1.54424	0.00000
0.9950	-53.827	667.038	-193.033	-0.301	0.000	0.450	39.228	290.169	-188.834	-0.300	0.000	0.040	0.00000	3.74641	0.00000	0.00000	5.38761	0.00000
0.9975	-87.259	902.036	-133.107	-0.283	0.000	0.484	59.146	316.292	-165.475	-0.303	0.000	0.055	0.00000	-1.57252	0.00000	0.00000	9.64826	0.00000
1.0000	-5.174	1138.966	9.704	-0.291	0.000	0.512	31.898	489.176	-128.857	-0.320	0.000	0.072	0.00000	0.52989	0.00000	0.00000	-2.00837	0.00000
1.0025	-39.536	1215.401	177.148	-0.293	0.000	0.530	-3.049	631.923	-34.370	-0.334	0.000	0.089	0.00000	5.17232	0.00000	0.00000	0.42395	0.00000
1.0050	-40.114	1152.892	253.839	-0.286	0.000	0.534	-7.324	717.956	18.298	-0.328	0.000	0.105	0.00000	3.99572	0.00000	0.00000	-0.68048	0.00000
1.0075	6.611	1040.260	259.585	-0.279	0.000	0.530	21.320	747.361	64.985	-0.326	0.000	0.116	0.00000	5.88582	0.00000	0.00000	19.29915	0.00000
1.0100	19.209	976.241	244.998	-0.279	0.000	0.523	-13.681	833.443	123.398	-0.332	0.000	0.124	0.00000	10.75550	0.00000	0.00000	3.04881	0.00000
1.0125	21.422	964.184	193.330	-0.283	0.000	0.523	-32.759	881.757	151.313	-0.338	0.000	0.123	0.00000	9.13092	0.00000	0.00000	3.17223	0.00000
1.0150	15.029	941.145	121.622	-0.284	0.000	0.521	-18.825	846.381	153.342	-0.336	0.000	0.122	0.00000	12.33662	0.00000	0.00000	3.95167	0.00000
1.0175	18.831	863.649	57.914	-0.283	0.000	0.507	-20.027	807.485	136.171	-0.334	0.000	0.124	0.00000	17.30978	0.00000	0.00000	5.69330	0.00000
1.0200	8.750	798.516	-49.790	-0.282	0.000	0.495	-23.608	768.849	104.857	-0.334	0.000	0.125	0.00000	12.95244	0.00000	0.00000	7.16000	0.00000
1.0225	3.483	743.923	-141.365	-0.284	0.000	0.482	-12.786	729.714	56.748	-0.332	0.000	0.114	0.00000	16.31604	0.00000	0.00000	0.81866	0.00000
1.0250	7.786	693.393	-212.235	-0.288	0.000	0.471	1.469	681.894	0.050	-0.331	0.000	0.102	0.00000	17.03982	0.00000	0.00000	-1.22683	0.00000
1.0275	15.154	656.441	-240.697	-0.288	0.000	0.461	13.630	616.207	-46.873	-0.331	0.000	0.096	0.00000	15.70223	0.00000	0.00000	-4.01410	0.00000
1.0300	16.365	597.101	-232.060	-0.286	0.000	0.451	17.601	565.160	-81.448	-0.329	0.000	0.092	0.00000	14.15696	0.00000	0.00000	-3.36179	0.00000
1.0325	12.990	528.038	-217.043	-0.286	0.000	0.444	21.694	546.344	-121.030	-0.327	0.000	0.087	0.00000	13.41667	0.00000	0.00000	-4.36398	0.00000
1.0350	7.143	488.682	-205.644	-0.287	0.000	0.442	28.259	538.569	-160.714	-0.327	0.000	0.081	0.00000	13.41325	0.00000	0.00000	-3.73749	0.00000
1.0375	8.104	487.845	-195.846	-0.287	0.000	0.442	21.773	528.563	-186.520	-0.328	0.000	0.076	0.00000	13.58467	0.00000	0.00000	-5.90869	0.00000
1.0400	12.244	490.949	-185.985	-0.288	0.000	0.439	21.310	511.574	-204.379	-0.331	0.000	0.072	0.00000	13.60401	0.00000	0.00000	-6.39907	0.00000
1.0425	12.472	499.325	-183.821	-0.288	0.000	0.438	12.454	498.844	-206.705	-0.331	0.000	0.069	0.00000	13.97969	0.00000	0.00000	-7.02542	0.00000
1.0450	6.048	522.588	-178.454	-0.287	0.000	0.439	12.797	495.769	-200.454	-0.332	0.000	0.069	0.00000	14.50060	0.00000	0.00000	-7.19432	0.00000
1.0475	7.616	554.914	-167.046	-0.287	0.000	0.442	4.797	507.348	-186.073	-0.334	0.000	0.072	0.00000	14.54865	0.00000	0.00000	-8.02104	0.00000
1.0500	1.348	607.410	-162.272	-0.287	0.000	0.449	-0.503	525.109	-175.332	-0.335	0.000	0.075	0.00000	13.99847	0.00000	0.00000	-8.16025	0.00000
1.0525	-1.070	663.859	-152.676	-0.287	0.000	0.457	0.081	549.199	-164.742	-0.336	0.000	0.076	0.00000	14.11020	0.00000	0.00000	-8.91619	0.00000
1.0550	-5.807	722.086	-137.735	-0.287	0.000	0.463	-0.342	582.559	-158.024	-0.338	0.000	0.077	0.00000	13.77478	0.00000	0.00000	-9.28645	0.00000
1.0575	-16.381	781.621	-119.665	-0.286	0.000	0.468	-3.628	629.704	-146.350	-0.339	0.000	0.079	0.00000	13.47731	0.00000	0.00000	-9.80711	0.00000
1.0600	-21.107	842.777	-103.200	-0.285	0.000	0.474	-1.679	690.616	-131.970	-0.341	0.000	0.083	0.00000	13.13328	0.00000	0.00000	-9.78431	0.00000
1.0625	-17.212	920.689	-78.934	-0.284	0.000	0.480	7.137	748.636	-113.580	-0.341	0.000	0.086	0.00000	12.60673	0.00000	0.00000	-9.54768	0.00000
1.0650	-16.259	992.342	-52.150	-0.283	0.000	0.486	17.548	805.856	-90.360	-0.341	0.000	0.090	0.00000	11.11718	0.00000	0.00000	-8.30988	0.00000
1.0675	-23.504	1044.115	-24.211	-0.282	0.000	0.491	19.848	862.865	-69.632	-0.342	0.000	0.093	0.00000	9.92440	0.00000	0.00000	-8.20049	0.00000
1.0700	-20.490	1085.682	12.131	-0.282	0.000	0.494	27.489	910.455	-45.590	-0.342	0.000	0.095	0.00000	10.96224	0.00000	0.00000	-7.60142	0.00000
1.0725	-15.630	1117.668	40.850	-0.281	0.000	0.496	39.906	944.083	-30.425	-0.342	0.000	0.097	0.00000	12.05030	0.00000	0.00000	-6.34125	0.00000
1.0750	-18.396	1129.705	63.458	-0.281	0.000	0.497	45.270	973.760	-13.567	-0.341	0.000	0.098	0.00000	11.76300	0.00000	0.00000	-5.79091	0.00000
1.0775	-18.191	1143.671	80.027	-0.280	0.000	0.498	49.319	990.367	-1.769	-0.341	0.000	0.099	0.00000	12.64214	0.00000	0.00000	-4.53466	0.00000
1.0800	-16.813	1165.209	89.724	-0.280	0.000	0.499	54.813	995.918	6.009	-0.341	0.000	0.099	0.00000	12.86331	0.00000	0.00000	-4.21570	0.00000
1.0825	-19.104	1178.102	93.558	-0.281	0.000	0.499	55.545	999.870	7.146	-0.341	0.000	0.098	0.00000	13.25464	0.00000	0.00000	-4.46119	0.00000
1.0850	-21.362	1181.137	94.387	-0.281	0.000	0.499	56.685	1005.315	4.388	-0.341	0.000	0.097	0.00000	14.02532	0.00000	0.00000	-5.58308	0.00000
1.0875	-20.023	1176.300	91.235	-0.281	0.000	0.497	57.441	1004.761	0.959	-0.341	0.000	0.096	0.00000	14.46164	0.00000	0.00000	-6.10478	0.00000
1.0900	-22.097	1161.274	85.136	-0.281	0.000	0.496	55.200	1004.693	-5.459	-0.341	0.000	0.095	0.00000	15.19682	0.00000	0.00000	-7.12078	0.00000
1.0925	-23.081	1145.521	78.190	-0.281	0.000	0.494	55.965	1000.334	-11.173	-0.341	0.000	0.093	0.00000	15.66476	0.00000	0.00000	-7.93739	0.00000
1.0950	-26.832	1129.306	68.852	-0.282	0.000	0.492	54.953	994.748	-19.657	-0.341	0.000	0.091	0.00000	16.70838	0.00000	0.00000	-9.12188	0.00000
1.0975	-29.547	1109.271	60.533	-0.282	0.000	0.489	55.113	987.635	-26.523	-0.341	0.000	0.090	0.00000	17.61505	0.00000	0.00000	-9.90113	0.00000
1.1000	-28.969	1094.074	51.835	-0.282	0.000	0.486	56.374	982.068	-34.380	-0.341	0.000	0.088	0.00000	18.90854	0.00000	0.00000	-10.46543	0.00000
1.1025	-26.918	1083.539	45.139	-0.282	0.000	0.484	59.372	977.894	-40.166	-0.341	0.000	0.086	0.00000	20.04720	0.00000	0.00000	-10.73619	0.00000
